# xmcd CD database file
#
# Track frame offsets:
#       182
#       20785
#       41812
#       67427
#       84505
#       113747
#       139215
#       159032
#       195052
#       223625
#       246807
#
# Disc length: 3387 seconds
#
# Revision: 1
# Processed by: cddbd v1.5.2PL0 Copyright (c) Steve Scherf et al.
# Submitted via: jack 3.1.1
#
DISCID=970d390b
DTITLE=Saiichi Sugiyama - Blue Water
DYEAR=1994
DGENRE=Blues
TTITLE0=Somewhere Down the Road
TTITLE1=Magic Wand
TTITLE2=China Doll
TTITLE3=Pretty Tanya
TTITLE4=Who's Been Talking
TTITLE5=Hold On
TTITLE6=What's Going On
TTITLE7=Sweet Little Angel
TTITLE8=Never Turn Back
TTITLE9=Crosscut Saw
TTITLE10=Taint Nobodys Bizness
EXTD=
EXTT0=
EXTT1=
EXTT2=
EXTT3=
EXTT4=
EXTT5=
EXTT6=
EXTT7=
EXTT8=
EXTT9=
EXTT10=
PLAYORDER=
